<svg width="252" height="136" viewBox="0 0 252 136" fill="none" xmlns="http://www.w3.org/2000/svg">
<rect width="252" height="136" fill="#E5E5E5"/>
<g clip-path="url(#clip0_0:1)">
<rect width="252" height="136" fill="white"/>
<path d="M119.43 78.5859L120.311 78.1132L120.028 77.5859H119.43V78.5859ZM95.3828 78.5859V77.5859H94.3828V78.5859H95.3828ZM95.3828 120V121H96.3828V120H95.3828ZM81.8125 120H80.8125V121H81.8125V120ZM81.8125 17.625V16.625H80.8125V17.625H81.8125ZM142.281 25.5L141.634 26.2625L141.637 26.2649L142.281 25.5ZM146.43 65.0859L145.623 64.4949L145.619 64.5002L146.43 65.0859ZM132.086 75.7031L131.729 74.7689L130.653 75.1796L131.211 76.1873L132.086 75.7031ZM156.133 119.156H157.133V118.898L157.008 118.672L156.133 119.156ZM156.133 120V121H157.133V120H156.133ZM141.648 120L140.767 120.473L141.05 121H141.648V120ZM95.3828 67.5469H94.3828V68.5469H95.3828V67.5469ZM132.086 62.3438L131.429 61.5895L131.425 61.5934L132.086 62.3438ZM132.367 33.8672L131.698 34.6105L131.703 34.6146L132.367 33.8672ZM116.055 28.7344L116.061 27.7344H116.055V28.7344ZM95.3828 28.7344V27.7344H94.3828V28.7344H95.3828ZM119.43 77.5859H95.3828V79.5859H119.43V77.5859ZM94.3828 78.5859V120H96.3828V78.5859H94.3828ZM95.3828 119H81.8125V121H95.3828V119ZM82.8125 120V17.625H80.8125V120H82.8125ZM81.8125 18.625H115.703V16.625H81.8125V18.625ZM115.703 18.625C127.096 18.625 135.69 21.2193 141.634 26.2625L142.928 24.7375C136.497 19.2807 127.373 16.625 115.703 16.625V18.625ZM141.637 26.2649C147.595 31.2817 150.633 38.6113 150.633 48.4219H152.633C152.633 38.17 149.437 30.2183 142.925 24.7351L141.637 26.2649ZM150.633 48.4219C150.633 54.6037 148.955 59.947 145.623 64.4949L147.236 65.677C150.842 60.7561 152.633 54.9901 152.633 48.4219H150.633ZM145.619 64.5002C142.325 69.0574 137.712 72.4856 131.729 74.7689L132.443 76.6374C138.742 74.2331 143.69 70.5832 147.24 65.6717L145.619 64.5002ZM131.211 76.1873L155.258 119.64L157.008 118.672L132.961 75.2189L131.211 76.1873ZM155.133 119.156V120H157.133V119.156H155.133ZM156.133 119H141.648V121H156.133V119ZM142.53 119.527L120.311 78.1132L118.548 79.0587L140.767 120.473L142.53 119.527ZM95.3828 68.5469H116.125V66.5469H95.3828V68.5469ZM116.125 68.5469C123.002 68.5469 128.581 66.7644 132.747 63.0941L131.425 61.5934C127.716 64.8606 122.654 66.5469 116.125 66.5469V68.5469ZM132.743 63.098C136.969 59.4189 139.062 54.491 139.062 48.4219H137.062C137.062 53.9777 135.172 58.3311 131.429 61.5895L132.743 63.098ZM139.062 48.4219C139.062 41.8838 137.093 36.7296 133.032 33.1198L131.703 34.6146C135.236 37.7548 137.062 42.3037 137.062 48.4219H139.062ZM133.036 33.1239C129.041 29.5286 123.331 27.7822 116.061 27.7344L116.048 29.7344C123.029 29.7803 128.193 31.4558 131.698 34.6105L133.036 33.1239ZM116.055 27.7344H95.3828V29.7344H116.055V27.7344ZM94.3828 28.7344V67.5469H96.3828V28.7344H94.3828Z" fill="#D59D0F"/>
<path d="M185.594 103.758L186.587 103.874L186.717 102.758H185.594V103.758ZM179.582 116.309L180.24 117.061L180.241 117.061L179.582 116.309ZM151.633 114.199L150.866 114.841L150.868 114.844L151.633 114.199ZM148.715 79.3242L147.811 78.8959L147.809 78.9007L148.715 79.3242ZM155.957 71.0273L156.482 71.8786L156.486 71.8757L155.957 71.0273ZM179.863 72.6797L179.183 73.4125L179.186 73.4151L179.863 72.6797ZM185.594 85.2656V86.2656H186.699L186.589 85.1657L185.594 85.2656ZM178.809 85.2656L177.819 85.4078L177.942 86.2656H178.809V85.2656ZM174.977 76.4062L174.292 77.135L174.296 77.139L174.977 76.4062ZM156.625 78.4453L155.833 77.8342L155.831 77.8379L156.625 78.4453ZM174.801 112.652L175.447 113.415L175.448 113.415L174.801 112.652ZM178.809 103.758V102.758H177.952L177.82 103.604L178.809 103.758ZM184.601 103.642C183.99 108.865 182.074 112.8 178.924 115.556L180.241 117.061C183.84 113.911 185.932 109.479 186.587 103.874L184.601 103.642ZM178.924 115.556C175.797 118.289 171.587 119.703 166.188 119.703V121.703C171.944 121.703 176.664 120.188 180.24 117.061L178.924 115.556ZM166.188 119.703C160.413 119.703 155.85 117.649 152.397 113.555L150.868 114.844C154.728 119.422 159.868 121.703 166.188 121.703V119.703ZM152.399 113.557C148.956 109.447 147.184 103.896 147.184 96.7969H145.184C145.184 104.229 147.044 110.279 150.866 114.841L152.399 113.557ZM147.184 96.7969V91.875H145.184V96.7969H147.184ZM147.184 91.875C147.184 87.2355 148.006 83.2013 149.621 79.7477L147.809 78.9007C146.049 82.6659 145.184 86.9989 145.184 91.875H147.184ZM149.618 79.7526C151.254 76.3013 153.544 73.6899 156.482 71.8786L155.432 70.1761C152.136 72.2086 149.597 75.1284 147.811 78.8959L149.618 79.7526ZM156.486 71.8757C159.427 70.0407 162.848 69.1094 166.785 69.1094V67.1094C162.519 67.1094 158.722 68.1233 155.428 70.179L156.486 71.8757ZM166.785 69.1094C172.027 69.1094 176.124 70.5726 179.183 73.4125L180.544 71.9469C177.04 68.693 172.418 67.1094 166.785 67.1094V69.1094ZM179.186 73.4151C182.251 76.2396 184.079 80.1885 184.599 85.3656L186.589 85.1657C186.031 79.6084 184.038 75.1666 180.541 71.9443L179.186 73.4151ZM185.594 84.2656H178.809V86.2656H185.594V84.2656ZM179.798 85.1234C179.196 80.9337 177.862 77.7212 175.657 75.6735L174.296 77.139C176.028 78.7476 177.249 81.4413 177.819 85.4078L179.798 85.1234ZM175.661 75.6775C173.478 73.6256 170.472 72.6641 166.785 72.6641V74.6641C170.129 74.6641 172.585 75.5306 174.292 77.135L175.661 75.6775ZM166.785 72.6641C162.188 72.6641 158.499 74.382 155.833 77.8342L157.417 79.0564C159.673 76.1336 162.757 74.6641 166.785 74.6641V72.6641ZM155.831 77.8379C153.21 81.2644 151.969 86.0468 151.969 92.0508H153.969C153.969 86.2892 155.165 82.0012 157.419 79.0528L155.831 77.8379ZM151.969 92.0508V97.0078H153.969V92.0508H151.969ZM151.969 97.0078C151.969 102.692 153.155 107.335 155.633 110.839L157.266 109.684C155.103 106.625 153.969 102.433 153.969 97.0078H151.969ZM155.633 110.839C158.149 114.397 161.706 116.184 166.188 116.184V114.184C162.326 114.184 159.39 112.689 157.266 109.684L155.633 110.839ZM166.188 116.184C170.073 116.184 173.21 115.311 175.447 113.415L174.154 111.889C172.408 113.369 169.802 114.184 166.188 114.184V116.184ZM175.448 113.415C177.73 111.478 179.125 108.231 179.797 103.912L177.82 103.604C177.18 107.723 175.903 110.405 174.154 111.89L175.448 113.415ZM178.809 104.758H185.594V102.758H178.809V104.758Z" fill="#D59D0F"/>
</g>
<defs>
<clipPath id="clip0_0:1">
<rect width="252" height="136" fill="white"/>
</clipPath>
</defs>
</svg>
